<svg xmlns="http://www.w3.org/2000/svg" xmlns:xlink="http://www.w3.org/1999/xlink" viewBox="0,0,256,256" width="100px" height="100px"><g fill="#dddddd" fill-rule="nonzero" stroke="none" stroke-width="1" stroke-linecap="butt" stroke-linejoin="miter" stroke-miterlimit="10" stroke-dasharray="" stroke-dashoffset="0" font-family="none" font-weight="none" font-size="none" text-anchor="none" style="mix-blend-mode: normal"><path d="M0,256v-256h256v256z" id="bgRectangle"></path></g><g fill="none" fill-rule="nonzero" stroke="none" stroke-width="1" stroke-linecap="butt" stroke-linejoin="miter" stroke-miterlimit="10" stroke-dasharray="" stroke-dashoffset="0" font-family="none" font-weight="none" font-size="none" text-anchor="none" style="mix-blend-mode: normal"><g transform="scale(2.56,2.56)"><path d="M83.105,15h-66.21l5.842,66.211l27.263,7.789l27.263,-7.789l5.842,-66.211z" fill="#f59173"></path><path d="M50,90c-0.093,0 -0.185,-0.013 -0.274,-0.039l-27.263,-7.79c-0.398,-0.114 -0.686,-0.461 -0.722,-0.874l-5.843,-66.21c-0.024,-0.279 0.069,-0.556 0.259,-0.763c0.19,-0.207 0.457,-0.324 0.738,-0.324h66.211c0.28,0 0.548,0.118 0.737,0.325c0.189,0.207 0.283,0.484 0.259,0.763l-5.843,66.21c-0.036,0.413 -0.323,0.76 -0.722,0.874l-27.263,7.79c-0.089,0.025 -0.181,0.038 -0.274,0.038zM23.673,80.438l26.327,7.522l26.327,-7.522l5.687,-64.438h-64.028z" fill="#1f212b"></path><path d="M50,20.5v62.463l21.811,-6.231l4.898,-56.232z" fill="#e85654"></path><path d="M50,30.579l-1,3.895l1,3.894h17.332l0.584,-7.789z" fill="#fefdef"></path><path d="M50,53.947h8.568l-0.584,8.764l-7.984,2.726l-1,3.563l1,4.616l15.384,-5.063l1.363,-22.395h-16.747l-1,3.842z" fill="#fefdef"></path><path d="M50,65.437v8.179l-15.384,-5.063l-0.779,-10.711h7.789l0.389,4.868zM40.458,38.368h9.542v-7.789h-17.721l1.363,23.368h16.358v-7.789h-8.958z" fill="#eeecd9"></path><path d="M67.576,78.441c-0.218,0 -0.418,-0.143 -0.48,-0.363c-0.076,-0.265 0.077,-0.542 0.343,-0.618l3.904,-1.115l4.82,-55.345h-25.663v3.5c0,0.276 -0.224,0.5 -0.5,0.5c-0.276,0 -0.5,-0.224 -0.5,-0.5v-4c0,-0.276 0.224,-0.5 0.5,-0.5h26.709c0.141,0 0.273,0.059 0.368,0.162c0.095,0.103 0.143,0.242 0.13,0.381l-4.898,56.231c-0.018,0.207 -0.161,0.38 -0.36,0.438l-4.234,1.21c-0.047,0.013 -0.094,0.019 -0.139,0.019z" fill="#1f212b"></path><path d="M62.537,79.881c-0.218,0 -0.418,-0.143 -0.48,-0.363c-0.076,-0.266 0.078,-0.542 0.343,-0.618l1.994,-0.569c0.268,-0.074 0.542,0.079 0.618,0.344c0.076,0.266 -0.078,0.542 -0.343,0.618l-1.994,0.569c-0.046,0.013 -0.093,0.019 -0.138,0.019z" fill="#1f212b"></path><path d="M50,83.463c-0.107,0 -0.213,-0.035 -0.301,-0.101c-0.126,-0.095 -0.199,-0.243 -0.199,-0.399v-9.348c0,-0.276 0.224,-0.5 0.5,-0.5c0.276,0 0.5,0.224 0.5,0.5v8.685l8.81,-2.517c0.267,-0.074 0.543,0.079 0.618,0.344c0.076,0.265 -0.077,0.542 -0.343,0.618l-9.447,2.699c-0.046,0.013 -0.092,0.019 -0.138,0.019z" fill="#1f212b"></path><path d="M50,65.937c-0.276,0 -0.5,-0.224 -0.5,-0.5v-8.49c0,-0.276 0.224,-0.5 0.5,-0.5c0.276,0 0.5,0.224 0.5,0.5v8.49c0,0.276 -0.224,0.5 -0.5,0.5z" fill="#1f212b"></path><path d="M50,46.658c-0.276,0 -0.5,-0.224 -0.5,-0.5v-4.789c0,-0.276 0.224,-0.5 0.5,-0.5c0.276,0 0.5,0.224 0.5,0.5v4.789c0,0.276 -0.224,0.5 -0.5,0.5z" fill="#1f212b"></path><path d="M50,74.116c-0.053,0 -0.105,-0.008 -0.156,-0.025l-15.384,-5.063c-0.192,-0.063 -0.328,-0.237 -0.343,-0.439l-0.779,-10.71c-0.01,-0.138 0.038,-0.275 0.133,-0.376c0.095,-0.102 0.228,-0.16 0.366,-0.16h7.789c0.261,0 0.478,0.2 0.498,0.46l0.364,4.541l7.512,2.565l7.508,-2.564l0.526,-7.897h-24.391c-0.265,0 -0.483,-0.207 -0.499,-0.471l-1.364,-23.369c-0.008,-0.138 0.041,-0.272 0.136,-0.373c0.094,-0.1 0.226,-0.157 0.363,-0.157h35.637c0.139,0 0.271,0.058 0.366,0.16c0.095,0.102 0.143,0.238 0.133,0.377l-0.584,7.79c-0.02,0.261 -0.237,0.462 -0.499,0.462h-26.335l0.509,6.789h25.241c0.138,0 0.27,0.057 0.364,0.157c0.095,0.101 0.144,0.235 0.135,0.373l-1.363,22.395c-0.013,0.205 -0.148,0.381 -0.343,0.445l-15.384,5.063c-0.051,0.018 -0.103,0.027 -0.156,0.027zM35.091,68.183l14.909,4.906l14.905,-4.906l1.311,-21.526h-25.174c-0.262,0 -0.479,-0.202 -0.499,-0.462l-0.584,-7.789c-0.01,-0.139 0.038,-0.276 0.133,-0.377c0.095,-0.102 0.228,-0.16 0.366,-0.16h26.41l0.509,-6.79h-34.567l1.305,22.368h24.454c0.139,0 0.271,0.057 0.365,0.158c0.094,0.101 0.143,0.237 0.134,0.375l-0.584,8.763c-0.014,0.201 -0.146,0.375 -0.338,0.44l-7.984,2.727c-0.104,0.036 -0.219,0.036 -0.322,0l-7.984,-2.727c-0.189,-0.064 -0.321,-0.234 -0.337,-0.433l-0.354,-4.408h-6.789z" fill="#1f212b"></path><path d="M50,30.9c-0.276,0 -0.5,-0.224 -0.5,-0.5v-2.9c0,-0.276 0.224,-0.5 0.5,-0.5c0.276,0 0.5,0.224 0.5,0.5v2.9c0,0.276 -0.224,0.5 -0.5,0.5z" fill="#1f212b"></path></g></g></svg>