<svg xmlns="http://www.w3.org/2000/svg" xmlns:xlink="http://www.w3.org/1999/xlink" viewBox="0,0,256,256" width="50px" height="50px"><defs><linearGradient x1="15.072" y1="13.624" x2="24.111" y2="24.129" gradientUnits="userSpaceOnUse" id="color-1"><stop offset="0" stop-color="#ffffff"></stop><stop offset="1" stop-color="#e2e2e2"></stop></linearGradient><linearGradient x1="26.453" y1="25.441" x2="36.17" y2="37.643" gradientUnits="userSpaceOnUse" id="color-2"><stop offset="0" stop-color="#f5f5f5"></stop><stop offset="0.03" stop-color="#eeeeee"></stop><stop offset="1" stop-color="#eeeeee"></stop></linearGradient><linearGradient x1="3" y1="24" x2="45" y2="24" gradientUnits="userSpaceOnUse" id="color-3"><stop offset="0" stop-color="#d74a39"></stop><stop offset="1" stop-color="#c73d28"></stop></linearGradient><linearGradient x1="24" y1="8" x2="24" y2="38.181" gradientUnits="userSpaceOnUse" id="color-4"><stop offset="0" stop-color="#000000" stop-opacity="0.15"></stop><stop offset="1" stop-color="#000000" stop-opacity="0.03"></stop></linearGradient><linearGradient x1="3" y1="17.73" x2="45" y2="17.73" gradientUnits="userSpaceOnUse" id="color-5"><stop offset="0" stop-color="#f5f5f5"></stop><stop offset="1" stop-color="#f5f5f5"></stop></linearGradient><linearGradient x1="24" y1="8.446" x2="24" y2="27.811" gradientUnits="userSpaceOnUse" id="color-6"><stop offset="0" stop-color="#e05141"></stop><stop offset="1" stop-color="#de4735"></stop></linearGradient></defs><g fill="#23272f" fill-rule="nonzero" stroke="none" stroke-width="1" stroke-linecap="butt" stroke-linejoin="miter" stroke-miterlimit="10" stroke-dasharray="" stroke-dashoffset="0" font-family="none" font-weight="none" font-size="none" text-anchor="none" style="mix-blend-mode: normal"><path d="M0,256v-256h256v256z" id="bgRectangle"></path></g><g fill="none" fill-rule="nonzero" stroke="none" stroke-width="1" stroke-linecap="butt" stroke-linejoin="miter" stroke-miterlimit="10" stroke-dasharray="" stroke-dashoffset="0" font-family="none" font-weight="none" font-size="none" text-anchor="none" style="mix-blend-mode: normal"><g transform="scale(5.33333,5.33333)"><path d="M42.485,40h-36.97c-1.389,0 -2.515,-1.126 -2.515,-2.515v-26.97c0,-1.389 1.126,-2.515 2.515,-2.515h36.969c1.39,0 2.516,1.126 2.516,2.515v26.969c0,1.39 -1.126,2.516 -2.515,2.516z" fill="url(#color-1)"></path><path d="M42.485,40h-34.485l37,-29v26.485c0,1.389 -1.126,2.515 -2.515,2.515z" fill="url(#color-2)"></path><path d="M5.515,8h2.485v32h-2.485c-1.389,0 -2.515,-1.126 -2.515,-2.515v-26.97c0,-1.389 1.126,-2.515 2.515,-2.515zM42.485,8h-2.485v32h2.485c1.389,0 2.515,-1.126 2.515,-2.515v-26.97c0,-1.389 -1.126,-2.515 -2.515,-2.515z" fill="url(#color-3)"></path><path d="M42.485,40h-11.97l-27.515,-28.515v-0.969c0,-1.39 1.126,-2.516 2.515,-2.516h36.969c1.39,0 2.516,1.126 2.516,2.515v26.969c0,1.39 -1.126,2.516 -2.515,2.516z" fill="url(#color-4)"></path><path d="M43.822,13.101l-19.822,14.358l-19.822,-14.358c-0.74,-0.536 -1.178,-1.394 -1.178,-2.308v-0.278c0,-1.389 1.126,-2.515 2.515,-2.515h36.969c1.39,0 2.516,1.126 2.516,2.515v0.278c0,0.914 -0.438,1.772 -1.178,2.308z" fill="url(#color-5)"></path><path d="M42.485,8h-0.3l-18.185,13.172l-18.185,-13.172h-0.3c-1.389,0 -2.515,1.126 -2.515,2.515v0.278c0,0.914 0.438,1.772 1.178,2.308l19.822,14.358l19.822,-14.358c0.74,-0.536 1.178,-1.394 1.178,-2.308v-0.278c0,-1.389 -1.126,-2.515 -2.515,-2.515z" fill="url(#color-6)"></path></g></g></svg>